# xmcd
#
# Track frame offsets:
#	150
#	17447
#	33646
#	49416
#	70272
#	87621
#	107477
#	125968
#	145337
#	165669
#	184848
#	200383
#
# Disc length: 2957 seconds
#
# Revision: 0
# Processed by: cddbd v1.5.2PL0 Copyright (c) Steve Scherf et al.
# Submitted via: dBpowerAMP V4.0
#
DISCID=b00b8b0c
DTITLE=Ruff Creek - No Regrets
DYEAR=2006
DGENRE=Country
TTITLE0=Small Town Blues
TTITLE1=No Regrets
TTITLE2=You Change
TTITLE3=You Can't Do It Alone
TTITLE4=Highway Songs
TTITLE5=Bet He Didn't Say That
TTITLE6=On Your Headstone
TTITLE7=Everytime I Fall In Love
TTITLE8=Call That Pride
TTITLE9=Southern Comfort
TTITLE10=Send That Angel Back
TTITLE11=Renegade
EXTD=
EXTT0=
EXTT1=
EXTT2=
EXTT3=
EXTT4=
EXTT5=
EXTT6=
EXTT7=
EXTT8=
EXTT9=
EXTT10=
EXTT11=
PLAYORDER=
